<?xml version="1.0" encoding="UTF-8" standalone="no"?>
<!DOCTYPE svg PUBLIC "-//W3C//DTD SVG 1.1//EN" "http://www.w3.org/Graphics/SVG/1.1/DTD/svg11.dtd">
<svg width="100%" height="100%" viewBox="0 0 879 709" version="1.1" xmlns="http://www.w3.org/2000/svg" xmlns:xlink="http://www.w3.org/1999/xlink" xml:space="preserve" xmlns:serif="http://www.serif.com/" style="fill-rule:evenodd;clip-rule:evenodd;stroke-linejoin:round;stroke-miterlimit:2;">
    <g transform="matrix(5.43965,0,0,5.43965,-1877.04,-1192.43)">
        <path d="M351.8,291.8C347,277.8 350.5,259.5 360.6,245.3C370.5,231.4 385.3,223.3 401.2,223.3L401.5,223.3C425.9,223.3 440.5,238.1 440.5,262.8L440.5,266.5L448.7,266.5L422.6,290.8L400.5,266.5L408.7,266.5C409,262.9 408,259.6 405.7,256.9C402.3,252.8 396.5,250.4 389.7,250.3L389.4,250.3C372,250.3 357,272 355.2,291.5L351.8,291.8ZM408.5,269.9L422.8,285.6L439.7,269.9L436.9,269.9L436.9,262.7C436.9,230.3 412.1,226.8 401.5,226.8L401.2,226.8C386.3,226.9 372.9,234.2 363.5,247.4C356,258 352.4,270.8 353.3,282.1C358.2,264 372.4,246.8 389.4,246.8L389.7,246.8C397.5,246.9 404.3,249.8 408.3,254.6C411.5,258.5 412.8,263.3 411.9,268.6L411.6,270.1L408.5,270.1L408.5,269.9Z" style="fill:rgb(0,119,186);fill-rule:nonzero;"/>
        <path d="M463.3,259.3L455.3,259.3L479.8,236.3L502,259.3L494.3,259.3C495.6,293.2 470.3,345.4 415.7,345.4C388.2,345.4 375.1,332.6 373,330.9C367.4,326.4 350.1,308.4 352.5,285.4C359.5,303.1 374.2,325.9 403.4,325.9C450.5,325.9 466.3,276.5 463.3,259.3Z" style="fill:rgb(0,119,186);fill-rule:nonzero;"/>
        <path d="M422.4,321.7C430.9,321.7 437.9,314.8 437.9,306.2C437.9,297.6 431,290.7 422.4,290.7C413.9,290.7 406.9,297.6 406.9,306.2C406.9,314.8 413.8,321.7 422.4,321.7Z" style="fill:rgb(243,146,0);fill-rule:nonzero;"/>
        <path d="M360.9,295.5L364,278.7L367.5,278.7L364.4,295.5L360.9,295.5Z" style="fill-rule:nonzero;"/>
        <path d="M366.9,295.5L369.6,280.9C369.9,279.5 371,278.5 372.5,278.5C374.2,278.5 374.8,279.8 375.1,280.9L377.6,289.5L379.6,278.7L383.1,278.7L380.4,293.3C380.2,294.6 379.5,295.7 378,295.7C376.5,295.7 376.1,294.8 375.6,293.2L372.7,283.4L372.6,283.4L370.4,295.4L366.9,295.4L366.9,295.5Z" style="fill-rule:nonzero;"/>
        <path d="M382.2,295.5L384.3,284.2C384.9,281.1 387.5,278.5 391.2,278.5C394.7,278.5 396.6,281 396,284.2C395.4,287.3 392.7,289.9 389.1,289.9L387.8,289.9L388.4,286.6C390.4,286.6 392,286.3 392.4,284.2C392.7,282.7 392,281.8 390.6,281.8C389.2,281.8 388.2,282.7 387.9,284.2L385.8,295.5L382.2,295.5Z" style="fill-rule:nonzero;"/>
        <path d="M407.1,282.1L405,282.1C402.3,282.1 400.7,284 400.1,285.6L406.5,285.6L405.9,288.7L399.5,288.7C399.5,290.3 400.4,292.2 403.1,292.2L405.3,292.2L404.7,295.5L402.9,295.5C397.1,295.5 395.4,291.2 396.2,287.1C397,283 400.3,278.7 406,278.7L407.8,278.7L407.1,282.1Z" style="fill-rule:nonzero;"/>
    </g>
</svg>
